<svg width="24" height="12" viewBox="0 0 24 12" fill="none" xmlns="http://www.w3.org/2000/svg">
<path d="M22.138 11.686L12.768 2.46401C12.5636 2.26175 12.2876 2.14831 12 2.14831C11.7124 2.14831 11.4365 2.26175 11.232 2.46401L1.86001 11.684C1.6543 11.8862 1.37742 11.9994 1.08901 11.9994C0.800597 11.9994 0.523721 11.8862 0.31801 11.684C0.216713 11.5853 0.136209 11.4672 0.0812411 11.3369C0.0262737 11.2065 -0.00204468 11.0665 -0.00204468 10.925C-0.00204468 10.7835 0.0262737 10.6435 0.0812411 10.5131C0.136209 10.3828 0.216713 10.2648 0.31801 10.166L9.68601 0.946009C10.3031 0.340157 11.1333 0.00071907 11.998 0.00071907C12.8628 0.00071907 13.693 0.340157 14.31 0.946009L23.678 10.166C23.7796 10.2648 23.8604 10.383 23.9155 10.5135C23.9707 10.644 23.9991 10.7843 23.9991 10.926C23.9991 11.0677 23.9707 11.208 23.9155 11.3385C23.8604 11.4691 23.7796 11.5872 23.678 11.686C23.4723 11.8882 23.1954 12.0014 22.907 12.0014C22.6186 12.0014 22.3417 11.8882 22.136 11.686" fill="#10B981"/>
</svg>
