<svg width="24" height="12" viewBox="0 0 24 12" fill="none" xmlns="http://www.w3.org/2000/svg">
<path d="M1.86201 0.313991L11.232 9.53599C11.4364 9.73825 11.7124 9.85169 12 9.85169C12.2876 9.85169 12.5636 9.73825 12.768 9.53599L22.14 0.31599C22.3457 0.113839 22.6226 0.000566483 22.911 0.000566483C23.1994 0.000566483 23.4763 0.113839 23.682 0.31599C23.7833 0.414745 23.8638 0.532776 23.9188 0.66313C23.9737 0.793483 24.0021 0.933521 24.0021 1.07499C24.0021 1.21646 23.9737 1.3565 23.9188 1.48685C23.8638 1.6172 23.7833 1.73524 23.682 1.83399L14.314 11.054C13.697 11.6598 12.8668 11.9993 12.002 11.9993C11.1373 11.9993 10.307 11.6598 9.69001 11.054L0.322006 1.83399C0.220403 1.7352 0.139637 1.61705 0.0844879 1.48651C0.0293384 1.35597 0.000923157 1.2157 0.000923157 1.07399C0.000923157 0.93228 0.0293384 0.792008 0.0844879 0.661469C0.139637 0.530931 0.220403 0.412776 0.322006 0.313991C0.527717 0.111839 0.804593 -0.00143433 1.09301 -0.00143433C1.38142 -0.00143433 1.6583 0.111839 1.86401 0.313991" fill="#F43F5E"/>
</svg>
