<svg width="230" height="230" viewBox="0 0 230 230" fill="none" xmlns="http://www.w3.org/2000/svg">
<path d="M172.5 117.396C171.556 117.391 170.62 117.576 169.748 117.938C168.876 118.3 168.084 118.832 167.421 119.504L115 171.925L62.5791 119.504C61.2166 118.235 59.4145 117.543 57.5525 117.576C55.6904 117.609 53.9138 118.363 52.5969 119.68C51.2801 120.997 50.5257 122.774 50.4929 124.636C50.46 126.498 51.1512 128.3 52.4208 129.663L109.921 187.163C111.268 188.509 113.095 189.265 115 189.265C116.905 189.265 118.731 188.509 120.079 187.163L177.579 129.663C178.925 128.315 179.681 126.488 179.681 124.583C179.681 122.679 178.925 120.852 177.579 119.504C176.916 118.832 176.124 118.3 175.252 117.938C174.38 117.576 173.444 117.391 172.5 117.396Z" fill="#B91C1C"/>
<path d="M115 40.7292C113.101 40.754 111.288 41.5192 109.945 42.8618C108.603 44.2044 107.837 46.0182 107.812 47.9167V182.083C107.812 183.99 108.57 185.818 109.918 187.166C111.266 188.514 113.094 189.271 115 189.271C116.906 189.271 118.734 188.514 120.082 187.166C121.43 185.818 122.187 183.99 122.187 182.083V47.9167C122.163 46.0182 121.397 44.2044 120.055 42.8618C118.712 41.5192 116.899 40.754 115 40.7292Z" fill="#B91C1C"/>
</svg>
