<svg width="230" height="230" viewBox="0 0 230 230" fill="none" xmlns="http://www.w3.org/2000/svg">
<path d="M172.5 112.604C171.556 112.609 170.62 112.424 169.748 112.062C168.876 111.7 168.084 111.168 167.421 110.496L115 58.075L62.5791 110.496C61.2166 111.765 59.4145 112.457 57.5525 112.424C55.6904 112.391 53.9138 111.637 52.5969 110.32C51.2801 109.003 50.5257 107.226 50.4929 105.364C50.46 103.502 51.1512 101.7 52.4208 100.337L109.921 42.8375C111.268 41.4915 113.095 40.7355 115 40.7355C116.905 40.7355 118.731 41.4915 120.079 42.8375L177.579 100.337C178.925 101.685 179.681 103.512 179.681 105.417C179.681 107.321 178.925 109.148 177.579 110.496C176.916 111.168 176.124 111.7 175.252 112.062C174.38 112.424 173.444 112.609 172.5 112.604Z" fill="#15803D"/>
<path d="M115 189.271C113.101 189.246 111.288 188.481 109.945 187.138C108.603 185.796 107.837 183.982 107.812 182.083V47.9166C107.812 46.0104 108.57 44.1822 109.918 42.8343C111.266 41.4864 113.094 40.7291 115 40.7291C116.906 40.7291 118.734 41.4864 120.082 42.8343C121.43 44.1822 122.187 46.0104 122.187 47.9166V182.083C122.163 183.982 121.397 185.796 120.055 187.138C118.712 188.481 116.899 189.246 115 189.271Z" fill="#15803D"/>
</svg>
